<svg xmlns="http://www.w3.org/2000/svg" width="15.993" height="15.995" viewBox="0 0 15.993 15.995">
  <path id="home" d="M15.564,6.956h0L9.038.431a1.472,1.472,0,0,0-2.082,0L.434,6.952l-.007.007a1.472,1.472,0,0,0,.98,2.509l.045,0h.26v4.8a1.725,1.725,0,0,0,1.723,1.723H5.989a.469.469,0,0,0,.469-.469V11.761a.787.787,0,0,1,.786-.786H8.749a.787.787,0,0,1,.786.786v3.764a.469.469,0,0,0,.469.469h2.553a1.725,1.725,0,0,0,1.723-1.723V9.47h.241a1.473,1.473,0,0,0,1.042-2.513Zm0,0" transform="translate(0 0.001)" fill="#060dd9"/>
</svg>
