<svg id="newspaper" xmlns="http://www.w3.org/2000/svg" width="14.542" height="14.542" viewBox="0 0 14.542 14.542">
  <g id="Group_7" data-name="Group 7">
    <path id="Path_5" data-name="Path 5" d="M14.023,3.636h-2.6V.519A.519.519,0,0,0,10.907,0H.519A.519.519,0,0,0,0,.519V12.465a2.077,2.077,0,0,0,2.077,2.077H12.465a2.077,2.077,0,0,0,2.077-2.077V4.155A.519.519,0,0,0,14.023,3.636ZM4.155,2.6H7.271a.519.519,0,0,1,0,1.039H4.155a.519.519,0,1,1,0-1.039Zm4.674,9.868H2.6a.519.519,0,0,1,0-1.039H8.829a.519.519,0,1,1,0,1.039Zm0-2.077H2.6a.519.519,0,1,1,0-1.039H8.829a.519.519,0,1,1,0,1.039Zm0-2.077H2.6a.519.519,0,1,1,0-1.039H8.829a.519.519,0,1,1,0,1.039Zm0-2.077H2.6a.519.519,0,0,1,0-1.039H8.829a.519.519,0,0,1,0,1.039ZM13.5,12.465a1.039,1.039,0,0,1-2.077,0V4.674H13.5v7.791Z" fill="#b8b8b8"/>
  </g>
</svg>
