<svg width="15.583" height="18.828" viewBox="0 0 15.583 18.828"><path d="M33.579,18.041,32.433,5.282a.676.676,0,0,0-.673-.615H29.4V3.6a3.6,3.6,0,1,0-7.2,0V4.667H19.831a.676.676,0,0,0-.673.615l-1.15,12.809a.676.676,0,0,0,.673.736H32.912a.676.676,0,0,0,.676-.676A.689.689,0,0,0,33.579,18.041ZM23.547,3.6a2.25,2.25,0,1,1,4.5,0V4.667h-4.5ZM19.42,17.476,20.449,6.019H22.2V7.227a.676.676,0,0,0,1.352,0V6.019h4.5V7.227a.676.676,0,1,0,1.352,0V6.019h1.745l1.029,11.458H19.42Z" transform="translate(-18.005)" fill="#b8b8b8" /> </svg>