<svg xmlns="http://www.w3.org/2000/svg" xmlns:xlink="http://www.w3.org/1999/xlink" width="88" height="88" viewBox="0 0 88 88">
  <defs>
    <filter id="Ellipse_7" x="0" y="0" width="88" height="88" filterUnits="userSpaceOnUse">
      <feOffset dy="7" input="SourceAlpha"/>
      <feGaussianBlur stdDeviation="5" result="blur"/>
      <feFlood flood-color="#060dd9" flood-opacity="0.18"/>
      <feComposite operator="in" in2="blur"/>
      <feComposite in="SourceGraphic"/>
    </filter>
  </defs>
  <g id="ShoppingCartButton" transform="translate(-144 -703)">
    <g transform="matrix(1, 0, 0, 1, 144, 703)" filter="url(#Ellipse_7)">
      <g id="Ellipse_7-2" data-name="Ellipse 7" transform="translate(15 8)" fill="#f3f3ff" stroke="#fff" stroke-width="4">
        <circle cx="29" cy="29" r="29" stroke="none"/>
        <circle cx="29" cy="29" r="27" fill="none"/>
      </g>
    </g>
    <path id="shopping_cart" data-name="shopping cart" d="M37.43,22.5,36,6.589a.843.843,0,0,0-.84-.767H32.215V4.492a4.492,4.492,0,1,0-8.983,0V5.821H20.282a.843.843,0,0,0-.84.767L18.008,22.565a.843.843,0,0,0,.84.918H36.6a.843.843,0,0,0,.843-.843A.859.859,0,0,0,37.43,22.5ZM24.917,4.492a2.806,2.806,0,1,1,5.612,0V5.821H24.917ZM19.77,21.8,21.053,7.507h2.178V9.014a.843.843,0,0,0,1.686,0V7.507h5.612V9.014a.843.843,0,1,0,1.686,0V7.507h2.176L35.674,21.8H19.77Z" transform="translate(160.614 728.539)" fill="#b8b8b8"/>
  </g>
</svg>
